<mxfile host="Electron" modified="2024-07-26T11:24:55.783Z" agent="Mozilla/5.0 (Macintosh; Intel Mac OS X 10_15_7) AppleWebKit/537.36 (KHTML, like Gecko) draw.io/24.6.4 Chrome/124.0.6367.207 Electron/30.0.6 Safari/537.36" etag="EzuMseVdT8MlN52UhJyZ" version="24.6.4" type="device">
  <diagram name="페이지-1" id="X4E4M3T3tHKSpQMablMg">
    <mxGraphModel dx="794" dy="1214" grid="1" gridSize="10" guides="1" tooltips="1" connect="1" arrows="1" fold="1" page="1" pageScale="1" pageWidth="827" pageHeight="1169" math="0" shadow="0">
      <root>
        <mxCell id="0" />
        <mxCell id="1" parent="0" />
        <mxCell id="-7IhnleU9GL6t6okw7be-1" value="&amp;nbsp;domain" style="shape=folder;fontStyle=1;spacingTop=10;tabWidth=40;tabHeight=14;tabPosition=left;html=1;whiteSpace=wrap;verticalAlign=top;align=left;fillColor=#f8cecc;strokeColor=#b85450;" vertex="1" parent="1">
          <mxGeometry x="280" y="260" width="160" height="150" as="geometry" />
        </mxCell>
        <mxCell id="-7IhnleU9GL6t6okw7be-5" value="&lt;div&gt;&lt;span&gt;Account&lt;/span&gt;&lt;/div&gt;" style="rounded=0;whiteSpace=wrap;html=1;fontStyle=0" vertex="1" parent="1">
          <mxGeometry x="295" y="330" width="130" height="60" as="geometry" />
        </mxCell>
        <mxCell id="-7IhnleU9GL6t6okw7be-13" value="&amp;nbsp;application.service" style="shape=folder;fontStyle=1;spacingTop=10;tabWidth=40;tabHeight=14;tabPosition=left;html=1;whiteSpace=wrap;verticalAlign=top;align=left;fillColor=#dae8fc;strokeColor=#6c8ebf;" vertex="1" parent="1">
          <mxGeometry x="280" y="90" width="160" height="150" as="geometry" />
        </mxCell>
        <mxCell id="-7IhnleU9GL6t6okw7be-14" value="&lt;div&gt;&lt;span&gt;SendMoney&lt;/span&gt;&lt;/div&gt;&lt;div&gt;&lt;span&gt;Service&lt;/span&gt;&lt;/div&gt;" style="rounded=0;whiteSpace=wrap;html=1;fontStyle=0" vertex="1" parent="1">
          <mxGeometry x="295" y="160" width="130" height="60" as="geometry" />
        </mxCell>
        <mxCell id="-7IhnleU9GL6t6okw7be-15" value="&amp;nbsp;application.port.in" style="shape=folder;fontStyle=1;spacingTop=10;tabWidth=40;tabHeight=14;tabPosition=left;html=1;whiteSpace=wrap;verticalAlign=top;align=left;fillColor=#dae8fc;strokeColor=#6c8ebf;" vertex="1" parent="1">
          <mxGeometry x="60" y="90" width="160" height="270" as="geometry" />
        </mxCell>
        <mxCell id="-7IhnleU9GL6t6okw7be-21" style="edgeStyle=orthogonalEdgeStyle;rounded=0;orthogonalLoop=1;jettySize=auto;html=1;endArrow=block;endFill=1;" edge="1" parent="1" source="-7IhnleU9GL6t6okw7be-16" target="-7IhnleU9GL6t6okw7be-19">
          <mxGeometry relative="1" as="geometry" />
        </mxCell>
        <mxCell id="-7IhnleU9GL6t6okw7be-16" value="&lt;div&gt;&lt;i&gt;&amp;lt;&amp;lt;interface&amp;gt;&amp;gt;&lt;/i&gt;&lt;/div&gt;SendMoney&lt;div&gt;UseCase&lt;/div&gt;" style="rounded=0;whiteSpace=wrap;html=1;" vertex="1" parent="1">
          <mxGeometry x="75" y="160" width="130" height="60" as="geometry" />
        </mxCell>
        <mxCell id="-7IhnleU9GL6t6okw7be-17" value="&amp;nbsp;application.port.out" style="shape=folder;fontStyle=1;spacingTop=10;tabWidth=40;tabHeight=14;tabPosition=left;html=1;whiteSpace=wrap;verticalAlign=top;align=left;fillColor=#dae8fc;strokeColor=#6c8ebf;" vertex="1" parent="1">
          <mxGeometry x="500" y="90" width="160" height="150" as="geometry" />
        </mxCell>
        <mxCell id="-7IhnleU9GL6t6okw7be-18" value="&lt;div&gt;&lt;i&gt;&amp;lt;&amp;lt;interface&amp;gt;&amp;gt;&lt;/i&gt;&lt;/div&gt;UpdateAccountState&lt;div&gt;Port&lt;/div&gt;" style="rounded=0;whiteSpace=wrap;html=1;" vertex="1" parent="1">
          <mxGeometry x="515" y="160" width="130" height="60" as="geometry" />
        </mxCell>
        <mxCell id="-7IhnleU9GL6t6okw7be-19" value="&lt;div&gt;&lt;span&gt;SendMoney&lt;/span&gt;&lt;/div&gt;&lt;div&gt;&lt;span&gt;Command&lt;/span&gt;&lt;/div&gt;" style="rounded=0;whiteSpace=wrap;html=1;fontStyle=0" vertex="1" parent="1">
          <mxGeometry x="75" y="270" width="130" height="60" as="geometry" />
        </mxCell>
        <mxCell id="-7IhnleU9GL6t6okw7be-20" style="edgeStyle=orthogonalEdgeStyle;rounded=0;orthogonalLoop=1;jettySize=auto;html=1;endArrow=block;endFill=0;" edge="1" parent="1" source="-7IhnleU9GL6t6okw7be-14" target="-7IhnleU9GL6t6okw7be-16">
          <mxGeometry relative="1" as="geometry" />
        </mxCell>
        <mxCell id="-7IhnleU9GL6t6okw7be-22" style="edgeStyle=orthogonalEdgeStyle;rounded=0;orthogonalLoop=1;jettySize=auto;html=1;entryX=0;entryY=0.5;entryDx=0;entryDy=0;endArrow=block;endFill=1;" edge="1" parent="1" source="-7IhnleU9GL6t6okw7be-14" target="-7IhnleU9GL6t6okw7be-18">
          <mxGeometry relative="1" as="geometry" />
        </mxCell>
        <mxCell id="-7IhnleU9GL6t6okw7be-23" style="edgeStyle=orthogonalEdgeStyle;rounded=0;orthogonalLoop=1;jettySize=auto;html=1;entryX=0.5;entryY=1;entryDx=0;entryDy=0;startArrow=block;startFill=1;endArrow=none;endFill=0;" edge="1" parent="1" source="-7IhnleU9GL6t6okw7be-5" target="-7IhnleU9GL6t6okw7be-14">
          <mxGeometry relative="1" as="geometry" />
        </mxCell>
      </root>
    </mxGraphModel>
  </diagram>
</mxfile>
